<svg xmlns="http://www.w3.org/2000/svg" width="500" height="500" viewBox="0 0 500 500">
  <!-- Hill formation 1 - upper area -->
  <path d="M140,55 C175,35 220,32 255,50 C290,68 305,105 295,140 C285,175 260,200 225,210 C190,220 150,210 128,185 C106,160 105,75 140,55" fill="none" stroke="#6b7280" stroke-width="0.7"/>
  <path d="M152,72 C182,55 218,52 248,66 C278,80 290,110 282,140 C274,170 254,192 225,198 C196,204 162,196 145,178 C128,160 122,89 152,72" fill="none" stroke="#6b7280" stroke-width="0.7"/>
  <path d="M164,90 C188,76 216,74 240,85 C264,96 274,118 268,142 C262,166 246,180 225,184 C204,188 178,182 164,168 C150,154 140,104 164,90" fill="none" stroke="#6b7280" stroke-width="0.7"/>
  <path d="M178,108 C196,97 214,96 232,104 C250,112 256,128 252,146 C248,164 238,172 224,174 C210,176 192,170 182,158 C172,146 160,119 178,108" fill="none" stroke="#6b7280" stroke-width="0.7"/>
  <path d="M192,124 C204,117 214,117 224,122 C234,127 238,138 236,148 C234,158 228,163 220,164 C212,165 202,161 196,153 C190,145 180,131 192,124" fill="none" stroke="#6b7280" stroke-width="0.7"/>

  <!-- Hill formation 2 - lower right -->
  <path d="M365,310 C400,288 448,292 478,320 C508,348 505,398 488,430 C471,462 435,475 400,468 C365,461 335,435 328,400 C321,365 330,332 365,310" fill="none" stroke="#6b7280" stroke-width="0.7"/>
  <path d="M374,328 C404,310 444,314 468,338 C492,362 490,402 476,428 C462,454 434,464 405,458 C376,452 352,432 348,404 C344,376 344,346 374,328" fill="none" stroke="#6b7280" stroke-width="0.7"/>
  <path d="M385,346 C410,332 440,336 460,355 C480,374 478,406 466,426 C454,446 432,452 410,448 C388,444 368,428 364,408 C360,388 360,360 385,346" fill="none" stroke="#6b7280" stroke-width="0.7"/>
  <path d="M398,364 C416,354 436,358 450,372 C464,386 462,410 454,424 C446,438 430,442 416,438 C402,434 388,420 386,406 C384,392 380,374 398,364" fill="none" stroke="#6b7280" stroke-width="0.7"/>

  <!-- Ridge lines - middle band -->
  <path d="M0,240 C35,228 85,232 140,236 C195,240 250,230 310,238 C370,246 430,234 500,242" fill="none" stroke="#6b7280" stroke-width="0.6"/>
  <path d="M0,258 C35,248 85,250 140,254 C195,258 250,248 310,256 C370,264 430,252 500,258" fill="none" stroke="#6b7280" stroke-width="0.6"/>
  <path d="M0,276 C35,268 85,270 140,273 C195,276 250,267 310,274 C370,281 430,272 500,278" fill="none" stroke="#6b7280" stroke-width="0.6"/>

  <!-- Small hill - right side -->
  <path d="M425,88 C448,70 478,74 495,94 C512,114 508,148 494,168 C480,188 454,192 435,178 C416,164 402,106 425,88" fill="none" stroke="#6b7280" stroke-width="0.6"/>
  <path d="M432,102 C452,87 476,90 490,106 C504,122 500,150 490,164 C480,178 458,180 444,170 C430,160 412,117 432,102" fill="none" stroke="#6b7280" stroke-width="0.6"/>
  <path d="M440,116 C454,105 472,108 482,120 C492,132 490,152 484,162 C478,172 462,174 452,166 C442,158 426,127 440,116" fill="none" stroke="#6b7280" stroke-width="0.6"/>

  <!-- Depression - bottom left -->
  <path d="M55,375 C82,358 118,362 142,382 C166,402 164,435 148,455 C132,475 102,480 80,465 C58,450 28,392 55,375" fill="none" stroke="#6b7280" stroke-width="0.6"/>
  <path d="M65,392 C88,378 115,382 134,398 C153,414 150,440 138,454 C126,468 102,470 86,458 C70,446 42,406 65,392" fill="none" stroke="#6b7280" stroke-width="0.6"/>
  <path d="M76,408 C94,398 112,400 126,412 C140,424 138,444 128,452 C118,460 102,460 92,452 C82,444 58,418 76,408" fill="none" stroke="#6b7280" stroke-width="0.6"/>

  <!-- Small contour - top right corner -->
  <path d="M350,20 C368,10 390,12 405,26 C420,40 418,62 408,74 C398,86 378,88 365,78 C352,68 332,30 350,20" fill="none" stroke="#6b7280" stroke-width="0.5"/>
  <path d="M356,32 C370,24 386,26 396,36 C406,46 405,62 398,70 C391,78 376,79 368,72 C360,65 342,40 356,32" fill="none" stroke="#6b7280" stroke-width="0.5"/>
</svg>
